<svg width="419" height="206" viewBox="0 0 419 206" fill="none" xmlns="http://www.w3.org/2000/svg">
<path d="M394.758 171.121H389.113L387.42 172.234H386.291L384.033 174.461L383.469 173.904V171.678L382.34 171.121L381.775 171.678H375.002V204.52L375.566 205.076H377.824L378.389 204.52L382.904 205.076L383.469 204.52V185.037L384.033 184.48V182.811L387.42 179.471H388.549L389.113 178.914H391.936L392.5 178.357H393.629L394.193 178.914L394.758 178.357V171.121Z" fill="url(#paint0_linear_91_692)"/>
<path d="M345.086 173.348L342.828 175.574L341.699 177.801V180.027L341.135 180.584L342.264 181.697L342.828 181.141H347.344L348.473 181.697L349.037 180.027L350.73 178.357L351.859 177.801H356.375L359.197 180.027L359.762 181.141V183.367L358.633 184.48H355.811L355.246 185.037L349.602 185.594L349.037 186.15H347.344L343.957 187.82L341.135 190.604L340.006 192.83V198.953L341.135 201.18L345.086 204.52H346.215L346.779 205.076H349.037L349.602 205.633H352.424L352.988 205.076H354.682L358.633 202.85V202.293L359.762 201.18L360.891 202.85V204.52L362.02 205.076H363.713L364.277 204.52H366.535L367.664 205.076L368.229 204.52V183.924L367.664 183.367V180.027L367.1 179.471V177.801L365.971 175.574L363.148 172.791L360.891 171.678H359.762L359.197 171.121H350.166L349.602 171.678H348.473L345.086 173.348Z" fill="url(#paint1_linear_91_692)"/>
<path d="M188.732 173.348L186.475 175.574L185.346 177.801V180.584L184.781 181.141H191.555L192.119 181.697L193.812 178.914L196.07 177.801H199.457L200.021 178.357H201.15L202.844 180.027L202.279 181.697L202.844 180.584L203.408 181.141V183.367L202.844 183.924L202.279 184.48H200.021L199.457 185.037H195.506L194.941 185.594H192.684L192.119 186.15L189.297 186.707L188.168 187.264L184.781 190.604L183.652 192.83V198.396L185.346 201.736L188.168 203.963L190.426 205.076H192.684L193.248 205.633H196.07L198.328 204.52L200.586 205.076L199.457 204.52L201.715 202.85H202.279L203.408 201.736L203.973 202.293V203.963L205.102 205.076L206.23 204.52H210.182L210.746 205.076L211.311 204.52H212.439V202.85L211.875 202.293V182.254L211.311 181.697V179.471L210.746 178.914V177.801L209.617 175.574L206.795 172.791L204.537 171.678H202.844L202.279 171.121H194.377L193.812 171.678H192.119L188.732 173.348Z" fill="url(#paint2_linear_91_692)"/>
<path d="M400.967 163.885L400.402 164.998L400.967 164.441L401.531 164.998V169.451L400.967 170.008L401.531 170.564L400.402 171.678H395.887V178.357L396.451 178.914L397.58 178.357H400.967L401.531 178.914V198.953L402.096 199.51V200.623L402.66 201.736L404.918 203.963L407.176 204.52L407.74 205.076H412.256L412.82 205.633L413.385 205.076H416.771L417.336 204.52H418.465V198.396L417.9 197.84H416.771L416.207 198.396H413.385L412.82 197.84H411.691L409.998 195.613V193.387L409.434 192.83L409.998 192.273V190.604L409.434 190.047L409.998 189.49L409.434 188.934L409.998 188.377V187.264L409.434 186.707L409.998 186.15L409.434 185.594V184.48L409.998 183.924L409.434 182.811V178.914L409.998 178.357H417.9V171.678H410.562L409.998 171.121V163.885L409.434 163.328H406.611L406.047 163.885H404.918L404.354 163.328L403.789 163.885L402.66 163.328L402.096 163.885H400.967Z" fill="url(#paint3_linear_91_692)"/>
<path d="M306.139 158.318L305.574 158.875V204.52H309.525L310.09 205.076H311.219L311.783 204.52L312.348 205.076L312.912 204.52L313.477 205.076L314.041 204.52L313.477 203.963L314.041 202.85L313.477 201.736V198.396L314.041 197.84V196.727L313.477 196.17V193.943L314.041 193.387L313.477 192.83V191.717L314.041 191.16L313.477 190.604L314.041 190.047L313.477 186.15L314.041 185.594V183.367L314.605 182.811V181.697L317.428 178.914H319.121L319.686 178.357H321.943L322.508 178.914H323.637L324.201 179.471L323.637 180.027L324.201 180.584L324.766 180.027L325.895 181.141V182.254L326.459 182.811V184.48L327.023 185.037V192.273L326.459 192.83L327.023 193.387V203.963L326.459 204.52L327.023 205.076L328.152 204.52H332.668L333.232 205.076L334.361 204.52H336.055L334.926 203.406V180.584L334.361 180.027L333.797 176.688L332.668 175.018L329.846 172.234L328.717 171.678H327.588L327.023 171.121H324.201L323.637 170.564L323.072 171.121H320.25L319.686 171.678H318.557L316.299 172.791L314.041 175.018L313.477 174.461V158.318H310.09L309.525 158.875H306.703L306.139 158.318Z" fill="url(#paint4_linear_91_692)"/>
<path d="M275.094 158.318L274.529 158.875H272.836L272.271 159.432H271.143L270.578 159.988H269.449L267.191 161.102L263.805 163.885H263.24V164.441L262.111 165.555H261.547V166.111L259.854 167.781L257.596 172.234V173.348L256.467 175.574V179.471L255.902 180.027V184.48L256.467 185.037V187.82L257.031 188.377V190.047L258.16 191.717V192.83L259.289 195.057L263.805 200.066L265.498 201.18L270.578 203.963H271.707L273.965 205.076H277.916L278.48 205.633L285.254 205.076L285.818 204.52H287.512L288.076 203.963L290.898 203.406L295.414 200.066L298.801 196.17L301.059 190.604H296.543L295.979 190.047L296.543 189.49H295.414L294.85 190.047L292.592 189.49L291.463 190.604L290.898 192.273L285.818 196.727H284.689L284.125 197.283H280.738L280.174 197.84L273.965 196.727L271.707 195.057H271.143L267.756 191.717L266.062 188.377L265.498 185.037L264.934 184.48V178.914L265.498 178.357V176.131L266.062 175.574V174.461L267.191 173.348L267.756 171.678L271.707 167.781L273.965 166.668H275.094L275.658 166.111H278.48L279.045 165.555L280.174 166.111H282.996L283.561 166.668H284.689L286.947 167.781L290.334 171.121L290.898 172.234V173.904L292.592 175.018H295.979L296.543 174.461H297.672L298.236 175.018L298.801 174.461H300.494V172.234L297.107 165.555L292.027 161.102L288.641 159.432H287.512L286.947 158.875H284.689L284.125 158.318H275.094Z" fill="url(#paint5_linear_91_692)"/>
<path d="M217.52 158.875V170.008L218.084 170.564V171.678L217.52 172.234V174.461L218.084 175.018L217.52 175.574L218.084 176.131L217.52 176.688V178.914L218.084 179.471L217.52 180.027L218.084 180.584L217.52 181.141V182.811L218.084 183.367V185.037L216.955 186.15L218.084 187.264L217.52 187.82V191.717L218.084 192.273V193.943L217.52 194.5V204.52L218.084 205.076H219.213L219.777 204.52H223.729L224.857 205.076L226.551 203.963L225.986 203.406V201.18L226.551 200.623L228.244 202.85L232.76 205.076H236.146L237.275 205.633L237.84 205.076H240.662L241.227 204.52H242.355L244.613 203.406L248.564 200.066V199.51L250.822 196.727V195.613L251.951 193.387V191.717L252.516 191.16V185.594L251.951 185.037V182.254L251.387 181.697V180.584L249.693 177.244L248.564 176.131V175.574H248L245.742 173.348L241.227 171.121H233.889L233.324 171.678H231.631L227.115 175.018L225.986 173.904V158.318H224.857L224.293 158.875L223.729 158.318L223.164 158.875H219.777L219.213 158.318L218.648 158.875H217.52Z" fill="url(#paint6_linear_91_692)"/>
<path d="M151.479 158.318L150.914 158.875V201.18L150.35 201.736L150.914 202.293V203.406L150.35 204.52L150.914 205.076L152.043 204.52H177.443L178.008 205.076L178.572 204.52H179.701V199.51L179.137 198.953L179.701 197.283H174.621L174.057 196.727L173.492 197.283L172.363 196.727L171.799 197.283L170.67 196.727H168.977L168.412 197.283L167.283 196.727H165.59L165.025 197.283H162.203L161.639 196.727H159.945L159.381 196.17V158.875L158.816 157.762L158.252 158.875H157.688L156.559 157.762L155.994 158.318H154.301L153.736 158.875L153.172 158.318L152.607 158.875L151.479 158.318Z" fill="url(#paint7_linear_91_692)"/>
<path d="M36.125 53L33.8672 55.2266L33.3027 56.3398L33.8672 59.123L35.5605 61.3496L37.8184 61.9062L38.3828 62.4629H39.5117L40.6406 63.5762V65.2461L41.2051 65.8027V94.1914L40.6406 94.748V96.9746L37.8184 103.098L32.1738 110.891L31.6094 112.561L29.3516 115.344L28.2227 118.127L23.707 124.25L22.5781 127.033L20.3203 129.816L19.7559 131.486L18.627 132.6L16.9336 135.939L13.5469 140.393L12.9824 142.062L9.5957 146.516L7.33789 150.969L5.64453 152.639L2.25781 159.318V160.432L1.69336 160.988V162.102L0.564453 164.328V166.555L0 167.111V177.688L0.564453 178.244V180.471L1.12891 181.027V182.141L2.25781 184.367V185.48L2.82227 186.037L3.95117 188.82L5.08008 189.934L6.20898 192.16L8.4668 194.387V194.943L12.9824 198.84L23.1426 203.85H24.8359L25.4004 204.406H28.7871L29.3516 204.963H106.682L107.246 204.406H110.633L111.197 203.85H113.455L115.148 202.736H116.277L117.971 201.623H119.1L120.229 200.51L121.922 199.953L123.615 198.283L125.873 197.17L129.824 193.273V192.717L132.646 189.377L134.904 184.924V183.811L135.469 183.254V182.141L136.598 179.914V177.688L137.162 177.131V166.555L136.598 165.998V163.771L136.033 163.215L135.469 160.432L134.34 158.762V157.648L132.646 154.309L131.518 153.195L130.953 151.525L128.695 148.742L128.131 147.072L127.002 145.959L125.309 142.619L124.18 141.506L123.615 139.836L122.486 138.723L121.922 137.609L122.486 136.496L121.922 137.053L119.1 133.156L119.664 132.043L119.1 132.6L116.842 129.816L116.277 128.146L114.02 125.363L113.455 123.693L112.326 122.58L110.633 119.24L108.375 116.457L107.811 114.787L105.553 112.004L103.295 107.551L101.037 104.768L100.473 103.098L99.3438 101.984L97.0859 97.5312V95.8613L96.5215 95.3047V91.9648L95.957 91.4082V65.8027L96.5215 65.2461V63.5762L97.6504 62.4629L99.9082 61.9062L100.473 61.3496H101.602L102.73 60.2363L103.295 58.0098L103.859 57.4531V56.3398L102.73 54.1133H102.166L101.037 53H36.125Z" fill="url(#paint8_linear_91_692)"/>
<path d="M76.2012 32.8418L75.6367 33.3984L73.3789 33.9551L70.5566 36.7383V37.8516L69.9922 38.4082V41.748L70.5566 42.8613L71.6855 43.9746L72.25 45.0879L75.0723 46.7578H79.0234L81.2812 45.6445L83.5391 43.418L84.1035 42.3047V37.2949L83.5391 36.1816L81.2812 33.9551L80.1523 33.3984H78.459L77.8945 32.8418H76.2012Z" fill="url(#paint9_linear_91_692)"/>
<path d="M54.1875 18.9258L53.623 19.4824L51.3652 20.0391L48.543 22.8223L47.4141 25.0488V30.0586L47.9785 30.6152V31.7285L50.2363 34.5117L53.623 36.1816H58.1387L58.7031 35.625H59.832L63.2188 32.8418L64.9121 29.502V25.6055L63.2188 22.2656L61.5254 20.5957L59.2676 19.4824H58.1387L57.5742 18.9258H54.1875Z" fill="url(#paint10_linear_91_692)"/>
<path d="M68.8633 0L65.4766 1.66992L63.7832 3.89648V5.00977L63.2188 5.56641V8.34961L63.7832 8.90625V10.0195L66.041 12.8027L68.2988 13.3594L68.8633 13.916H72.25L72.8145 13.3594H73.9434L75.6367 11.6895H76.2012L77.3301 9.46289L77.8945 6.67969L77.3301 6.12305V4.45312L76.7656 3.33984L73.9434 0.556641H72.8145L72.25 0H68.8633Z" fill="url(#paint11_linear_91_692)"/>
<defs>
<linearGradient id="paint0_linear_91_692" x1="384.88" y1="171.121" x2="384.88" y2="205.076" gradientUnits="userSpaceOnUse">
<stop stop-color="#E2918C"/>
<stop offset="0.5" stop-color="#D791E8"/>
<stop offset="1" stop-color="#76C0EB"/>
</linearGradient>
<linearGradient id="paint1_linear_91_692" x1="354.117" y1="171.121" x2="354.117" y2="205.633" gradientUnits="userSpaceOnUse">
<stop stop-color="#E2918C"/>
<stop offset="0.5" stop-color="#D791E8"/>
<stop offset="1" stop-color="#76C0EB"/>
</linearGradient>
<linearGradient id="paint2_linear_91_692" x1="198.046" y1="171.121" x2="198.046" y2="205.633" gradientUnits="userSpaceOnUse">
<stop stop-color="#E2918C"/>
<stop offset="0.5" stop-color="#D791E8"/>
<stop offset="1" stop-color="#76C0EB"/>
</linearGradient>
<linearGradient id="paint3_linear_91_692" x1="407.176" y1="163.328" x2="407.176" y2="205.633" gradientUnits="userSpaceOnUse">
<stop stop-color="#E2918C"/>
<stop offset="0.5" stop-color="#D791E8"/>
<stop offset="1" stop-color="#76C0EB"/>
</linearGradient>
<linearGradient id="paint4_linear_91_692" x1="320.814" y1="158.318" x2="320.814" y2="205.076" gradientUnits="userSpaceOnUse">
<stop stop-color="#E2918C"/>
<stop offset="0.5" stop-color="#D791E8"/>
<stop offset="1" stop-color="#76C0EB"/>
</linearGradient>
<linearGradient id="paint5_linear_91_692" x1="278.48" y1="158.318" x2="278.48" y2="205.633" gradientUnits="userSpaceOnUse">
<stop stop-color="#E2918C"/>
<stop offset="0.5" stop-color="#D791E8"/>
<stop offset="1" stop-color="#76C0EB"/>
</linearGradient>
<linearGradient id="paint6_linear_91_692" x1="234.735" y1="158.318" x2="234.735" y2="205.633" gradientUnits="userSpaceOnUse">
<stop stop-color="#E2918C"/>
<stop offset="0.5" stop-color="#D791E8"/>
<stop offset="1" stop-color="#76C0EB"/>
</linearGradient>
<linearGradient id="paint7_linear_91_692" x1="165.025" y1="157.762" x2="165.025" y2="205.076" gradientUnits="userSpaceOnUse">
<stop stop-color="#E2918C"/>
<stop offset="0.5" stop-color="#D791E8"/>
<stop offset="1" stop-color="#76C0EB"/>
</linearGradient>
<linearGradient id="paint8_linear_91_692" x1="68.5811" y1="53" x2="68.5811" y2="204.963" gradientUnits="userSpaceOnUse">
<stop stop-color="#E2918C"/>
<stop offset="0.5" stop-color="#D791E8"/>
<stop offset="1" stop-color="#76C0EB"/>
</linearGradient>
<linearGradient id="paint9_linear_91_692" x1="76.7656" y1="32.8418" x2="76.7656" y2="46.7578" gradientUnits="userSpaceOnUse">
<stop stop-color="#E2918C"/>
<stop offset="0.5" stop-color="#D791E8"/>
<stop offset="1" stop-color="#76C0EB"/>
</linearGradient>
<linearGradient id="paint10_linear_91_692" x1="56.1631" y1="18.9258" x2="56.1631" y2="36.1816" gradientUnits="userSpaceOnUse">
<stop stop-color="#E2918C"/>
<stop offset="0.5" stop-color="#D791E8"/>
<stop offset="1" stop-color="#76C0EB"/>
</linearGradient>
<linearGradient id="paint11_linear_91_692" x1="70.5566" y1="0" x2="70.5566" y2="13.916" gradientUnits="userSpaceOnUse">
<stop stop-color="#E2918C"/>
<stop offset="0.5" stop-color="#D791E8"/>
<stop offset="1" stop-color="#76C0EB"/>
</linearGradient>
</defs>
</svg>
